<svg width="529" height="369" viewBox="0 0 529 369" fill="none" xmlns="http://www.w3.org/2000/svg">
<g filter="url(#filter0_d_13_8)">
<g filter="url(#filter1_bd_13_8)">
<mask id="path-1-inside-1_13_8" fill="white">
<path d="M359.901 251.986C338.048 251.986 317.091 243.226 301.639 227.633C286.187 212.039 277.507 190.89 277.507 168.838C277.507 146.786 286.187 125.637 301.639 110.044C317.091 94.4511 338.048 85.691 359.901 85.691C381.753 85.691 402.71 94.4511 418.162 110.044C433.614 125.637 442.295 146.786 442.295 168.838C442.295 190.89 433.614 212.039 418.162 227.633C402.71 243.226 381.753 251.986 359.901 251.986ZM359.901 2.54358C364.271 2.54358 368.463 4.29561 371.553 7.41424C374.643 10.5329 376.38 14.7626 376.38 19.1731V52.432C376.38 56.8424 374.643 61.0722 371.553 64.1908C368.463 67.3095 364.271 69.0615 359.901 69.0615C355.53 69.0615 351.339 67.3095 348.248 64.1908C345.158 61.0722 343.422 56.8424 343.422 52.432V19.1731C343.422 14.7626 345.158 10.5329 348.248 7.41424C351.339 4.29561 355.53 2.54358 359.901 2.54358ZM359.901 268.615C364.271 268.615 368.463 270.367 371.553 273.486C374.643 276.605 376.38 280.834 376.38 285.245V318.504C376.38 322.914 374.643 327.144 371.553 330.263C368.463 333.381 364.271 335.133 359.901 335.133C355.53 335.133 351.339 333.381 348.248 330.263C345.158 327.144 343.422 322.914 343.422 318.504V285.245C343.422 280.834 345.158 276.605 348.248 273.486C351.339 270.367 355.53 268.615 359.901 268.615ZM211.591 152.209H244.549C248.919 152.209 253.111 153.961 256.201 157.08C259.291 160.198 261.028 164.428 261.028 168.838C261.028 173.249 259.291 177.479 256.201 180.597C253.111 183.716 248.919 185.468 244.549 185.468H211.591C207.221 185.468 203.029 183.716 199.939 180.597C196.848 177.479 195.112 173.249 195.112 168.838C195.112 164.428 196.848 160.198 199.939 157.08C203.029 153.961 207.221 152.209 211.591 152.209ZM475.253 152.209H508.21C512.581 152.209 516.772 153.961 519.863 157.08C522.953 160.198 524.689 164.428 524.689 168.838C524.689 173.249 522.953 177.479 519.863 180.597C516.772 183.716 512.581 185.468 508.21 185.468H475.253C470.882 185.468 466.691 183.716 463.6 180.597C460.51 177.479 458.774 173.249 458.774 168.838C458.774 164.428 460.51 160.198 463.6 157.08C466.691 153.961 470.882 152.209 475.253 152.209ZM476.423 51.2513C479.512 54.3698 481.248 58.5988 481.248 63.0084C481.248 67.4179 479.512 71.6469 476.423 74.7654L453.122 98.2795C451.602 99.8678 449.783 101.135 447.773 102.006C445.762 102.878 443.6 103.336 441.412 103.356C439.224 103.375 437.054 102.954 435.029 102.118C433.003 101.282 431.164 100.047 429.616 98.4856C428.069 96.9242 426.845 95.0675 426.017 93.0238C425.188 90.9801 424.771 88.7904 424.79 86.5823C424.809 84.3743 425.264 82.1921 426.128 80.1633C426.991 78.1344 428.247 76.2994 429.821 74.7654L453.122 51.2513C456.212 48.1338 460.403 46.3824 464.772 46.3824C469.142 46.3824 473.332 48.1338 476.423 51.2513ZM289.981 239.397C293.07 242.516 294.806 246.745 294.806 251.154C294.806 255.564 293.07 259.793 289.981 262.911L266.68 286.425C265.16 288.014 263.341 289.281 261.331 290.152C259.32 291.024 257.158 291.482 254.97 291.502C252.782 291.521 250.612 291.1 248.587 290.264C246.562 289.428 244.722 288.193 243.175 286.632C241.627 285.07 240.404 283.213 239.575 281.17C238.747 279.126 238.33 276.936 238.349 274.728C238.368 272.52 238.822 270.338 239.686 268.309C240.55 266.28 241.805 264.445 243.379 262.911L266.68 239.397C269.77 236.28 273.961 234.528 278.33 234.528C282.7 234.528 286.891 236.28 289.981 239.397ZM266.68 51.2513L289.981 74.7654C292.983 77.9018 294.644 82.1024 294.606 86.4626C294.569 90.8228 292.836 94.9937 289.78 98.0769C286.725 101.16 282.592 102.909 278.271 102.947C273.95 102.985 269.788 101.309 266.68 98.2795L243.395 74.7654C240.394 71.6291 238.733 67.4284 238.77 63.0682C238.808 58.708 240.541 54.5371 243.596 51.4539C246.651 48.3707 250.784 46.6218 255.105 46.5839C259.426 46.546 263.588 48.2221 266.696 51.2513H266.68ZM453.122 239.397L476.423 262.911C479.424 266.048 481.085 270.248 481.048 274.609C481.01 278.969 479.277 283.14 476.222 286.223C473.167 289.306 469.034 291.055 464.713 291.093C460.392 291.131 456.23 289.455 453.122 286.425L429.821 262.911C428.247 261.377 426.991 259.542 426.128 257.514C425.264 255.485 424.809 253.303 424.79 251.095C424.771 248.886 425.188 246.697 426.017 244.653C426.845 242.609 428.069 240.753 429.616 239.191C431.164 237.63 433.003 236.395 435.029 235.559C437.054 234.723 439.224 234.302 441.412 234.321C443.6 234.34 445.762 234.799 447.773 235.671C449.783 236.542 451.602 237.809 453.122 239.397Z"/>
</mask>
<path d="M359.901 251.986C338.048 251.986 317.091 243.226 301.639 227.633C286.187 212.039 277.507 190.89 277.507 168.838C277.507 146.786 286.187 125.637 301.639 110.044C317.091 94.4511 338.048 85.691 359.901 85.691C381.753 85.691 402.71 94.4511 418.162 110.044C433.614 125.637 442.295 146.786 442.295 168.838C442.295 190.89 433.614 212.039 418.162 227.633C402.71 243.226 381.753 251.986 359.901 251.986ZM359.901 2.54358C364.271 2.54358 368.463 4.29561 371.553 7.41424C374.643 10.5329 376.38 14.7626 376.38 19.1731V52.432C376.38 56.8424 374.643 61.0722 371.553 64.1908C368.463 67.3095 364.271 69.0615 359.901 69.0615C355.53 69.0615 351.339 67.3095 348.248 64.1908C345.158 61.0722 343.422 56.8424 343.422 52.432V19.1731C343.422 14.7626 345.158 10.5329 348.248 7.41424C351.339 4.29561 355.53 2.54358 359.901 2.54358ZM359.901 268.615C364.271 268.615 368.463 270.367 371.553 273.486C374.643 276.605 376.38 280.834 376.38 285.245V318.504C376.38 322.914 374.643 327.144 371.553 330.263C368.463 333.381 364.271 335.133 359.901 335.133C355.53 335.133 351.339 333.381 348.248 330.263C345.158 327.144 343.422 322.914 343.422 318.504V285.245C343.422 280.834 345.158 276.605 348.248 273.486C351.339 270.367 355.53 268.615 359.901 268.615ZM211.591 152.209H244.549C248.919 152.209 253.111 153.961 256.201 157.08C259.291 160.198 261.028 164.428 261.028 168.838C261.028 173.249 259.291 177.479 256.201 180.597C253.111 183.716 248.919 185.468 244.549 185.468H211.591C207.221 185.468 203.029 183.716 199.939 180.597C196.848 177.479 195.112 173.249 195.112 168.838C195.112 164.428 196.848 160.198 199.939 157.08C203.029 153.961 207.221 152.209 211.591 152.209ZM475.253 152.209H508.21C512.581 152.209 516.772 153.961 519.863 157.08C522.953 160.198 524.689 164.428 524.689 168.838C524.689 173.249 522.953 177.479 519.863 180.597C516.772 183.716 512.581 185.468 508.21 185.468H475.253C470.882 185.468 466.691 183.716 463.6 180.597C460.51 177.479 458.774 173.249 458.774 168.838C458.774 164.428 460.51 160.198 463.6 157.08C466.691 153.961 470.882 152.209 475.253 152.209ZM476.423 51.2513C479.512 54.3698 481.248 58.5988 481.248 63.0084C481.248 67.4179 479.512 71.6469 476.423 74.7654L453.122 98.2795C451.602 99.8678 449.783 101.135 447.773 102.006C445.762 102.878 443.6 103.336 441.412 103.356C439.224 103.375 437.054 102.954 435.029 102.118C433.003 101.282 431.164 100.047 429.616 98.4856C428.069 96.9242 426.845 95.0675 426.017 93.0238C425.188 90.9801 424.771 88.7904 424.79 86.5823C424.809 84.3743 425.264 82.1921 426.128 80.1633C426.991 78.1344 428.247 76.2994 429.821 74.7654L453.122 51.2513C456.212 48.1338 460.403 46.3824 464.772 46.3824C469.142 46.3824 473.332 48.1338 476.423 51.2513ZM289.981 239.397C293.07 242.516 294.806 246.745 294.806 251.154C294.806 255.564 293.07 259.793 289.981 262.911L266.68 286.425C265.16 288.014 263.341 289.281 261.331 290.152C259.32 291.024 257.158 291.482 254.97 291.502C252.782 291.521 250.612 291.1 248.587 290.264C246.562 289.428 244.722 288.193 243.175 286.632C241.627 285.07 240.404 283.213 239.575 281.17C238.747 279.126 238.33 276.936 238.349 274.728C238.368 272.52 238.822 270.338 239.686 268.309C240.55 266.28 241.805 264.445 243.379 262.911L266.68 239.397C269.77 236.28 273.961 234.528 278.33 234.528C282.7 234.528 286.891 236.28 289.981 239.397ZM266.68 51.2513L289.981 74.7654C292.983 77.9018 294.644 82.1024 294.606 86.4626C294.569 90.8228 292.836 94.9937 289.78 98.0769C286.725 101.16 282.592 102.909 278.271 102.947C273.95 102.985 269.788 101.309 266.68 98.2795L243.395 74.7654C240.394 71.6291 238.733 67.4284 238.77 63.0682C238.808 58.708 240.541 54.5371 243.596 51.4539C246.651 48.3707 250.784 46.6218 255.105 46.5839C259.426 46.546 263.588 48.2221 266.696 51.2513H266.68ZM453.122 239.397L476.423 262.911C479.424 266.048 481.085 270.248 481.048 274.609C481.01 278.969 479.277 283.14 476.222 286.223C473.167 289.306 469.034 291.055 464.713 291.093C460.392 291.131 456.23 289.455 453.122 286.425L429.821 262.911C428.247 261.377 426.991 259.542 426.128 257.514C425.264 255.485 424.809 253.303 424.79 251.095C424.771 248.886 425.188 246.697 426.017 244.653C426.845 242.609 428.069 240.753 429.616 239.191C431.164 237.63 433.003 236.395 435.029 235.559C437.054 234.723 439.224 234.302 441.412 234.321C443.6 234.34 445.762 234.799 447.773 235.671C449.783 236.542 451.602 237.809 453.122 239.397Z" fill="url(#paint0_linear_13_8)" shape-rendering="crispEdges"/>
<path d="M359.901 251.986C338.048 251.986 317.091 243.226 301.639 227.633C286.187 212.039 277.507 190.89 277.507 168.838C277.507 146.786 286.187 125.637 301.639 110.044C317.091 94.4511 338.048 85.691 359.901 85.691C381.753 85.691 402.71 94.4511 418.162 110.044C433.614 125.637 442.295 146.786 442.295 168.838C442.295 190.89 433.614 212.039 418.162 227.633C402.71 243.226 381.753 251.986 359.901 251.986ZM359.901 2.54358C364.271 2.54358 368.463 4.29561 371.553 7.41424C374.643 10.5329 376.38 14.7626 376.38 19.1731V52.432C376.38 56.8424 374.643 61.0722 371.553 64.1908C368.463 67.3095 364.271 69.0615 359.901 69.0615C355.53 69.0615 351.339 67.3095 348.248 64.1908C345.158 61.0722 343.422 56.8424 343.422 52.432V19.1731C343.422 14.7626 345.158 10.5329 348.248 7.41424C351.339 4.29561 355.53 2.54358 359.901 2.54358ZM359.901 268.615C364.271 268.615 368.463 270.367 371.553 273.486C374.643 276.605 376.38 280.834 376.38 285.245V318.504C376.38 322.914 374.643 327.144 371.553 330.263C368.463 333.381 364.271 335.133 359.901 335.133C355.53 335.133 351.339 333.381 348.248 330.263C345.158 327.144 343.422 322.914 343.422 318.504V285.245C343.422 280.834 345.158 276.605 348.248 273.486C351.339 270.367 355.53 268.615 359.901 268.615ZM211.591 152.209H244.549C248.919 152.209 253.111 153.961 256.201 157.08C259.291 160.198 261.028 164.428 261.028 168.838C261.028 173.249 259.291 177.479 256.201 180.597C253.111 183.716 248.919 185.468 244.549 185.468H211.591C207.221 185.468 203.029 183.716 199.939 180.597C196.848 177.479 195.112 173.249 195.112 168.838C195.112 164.428 196.848 160.198 199.939 157.08C203.029 153.961 207.221 152.209 211.591 152.209ZM475.253 152.209H508.21C512.581 152.209 516.772 153.961 519.863 157.08C522.953 160.198 524.689 164.428 524.689 168.838C524.689 173.249 522.953 177.479 519.863 180.597C516.772 183.716 512.581 185.468 508.21 185.468H475.253C470.882 185.468 466.691 183.716 463.6 180.597C460.51 177.479 458.774 173.249 458.774 168.838C458.774 164.428 460.51 160.198 463.6 157.08C466.691 153.961 470.882 152.209 475.253 152.209ZM476.423 51.2513C479.512 54.3698 481.248 58.5988 481.248 63.0084C481.248 67.4179 479.512 71.6469 476.423 74.7654L453.122 98.2795C451.602 99.8678 449.783 101.135 447.773 102.006C445.762 102.878 443.6 103.336 441.412 103.356C439.224 103.375 437.054 102.954 435.029 102.118C433.003 101.282 431.164 100.047 429.616 98.4856C428.069 96.9242 426.845 95.0675 426.017 93.0238C425.188 90.9801 424.771 88.7904 424.79 86.5823C424.809 84.3743 425.264 82.1921 426.128 80.1633C426.991 78.1344 428.247 76.2994 429.821 74.7654L453.122 51.2513C456.212 48.1338 460.403 46.3824 464.772 46.3824C469.142 46.3824 473.332 48.1338 476.423 51.2513ZM289.981 239.397C293.07 242.516 294.806 246.745 294.806 251.154C294.806 255.564 293.07 259.793 289.981 262.911L266.68 286.425C265.16 288.014 263.341 289.281 261.331 290.152C259.32 291.024 257.158 291.482 254.97 291.502C252.782 291.521 250.612 291.1 248.587 290.264C246.562 289.428 244.722 288.193 243.175 286.632C241.627 285.07 240.404 283.213 239.575 281.17C238.747 279.126 238.33 276.936 238.349 274.728C238.368 272.52 238.822 270.338 239.686 268.309C240.55 266.28 241.805 264.445 243.379 262.911L266.68 239.397C269.77 236.28 273.961 234.528 278.33 234.528C282.7 234.528 286.891 236.28 289.981 239.397ZM266.68 51.2513L289.981 74.7654C292.983 77.9018 294.644 82.1024 294.606 86.4626C294.569 90.8228 292.836 94.9937 289.78 98.0769C286.725 101.16 282.592 102.909 278.271 102.947C273.95 102.985 269.788 101.309 266.68 98.2795L243.395 74.7654C240.394 71.6291 238.733 67.4284 238.77 63.0682C238.808 58.708 240.541 54.5371 243.596 51.4539C246.651 48.3707 250.784 46.6218 255.105 46.5839C259.426 46.546 263.588 48.2221 266.696 51.2513H266.68ZM453.122 239.397L476.423 262.911C479.424 266.048 481.085 270.248 481.048 274.609C481.01 278.969 479.277 283.14 476.222 286.223C473.167 289.306 469.034 291.055 464.713 291.093C460.392 291.131 456.23 289.455 453.122 286.425L429.821 262.911C428.247 261.377 426.991 259.542 426.128 257.514C425.264 255.485 424.809 253.303 424.79 251.095C424.771 248.886 425.188 246.697 426.017 244.653C426.845 242.609 428.069 240.753 429.616 239.191C431.164 237.63 433.003 236.395 435.029 235.559C437.054 234.723 439.224 234.302 441.412 234.321C443.6 234.34 445.762 234.799 447.773 235.671C449.783 236.542 451.602 237.809 453.122 239.397Z" stroke="url(#paint1_linear_13_8)" stroke-width="2" shape-rendering="crispEdges" mask="url(#path-1-inside-1_13_8)"/>
</g>
<g filter="url(#filter2_bd_13_8)">
<path d="M319.22 223.27C316.139 195.449 303.716 169.503 283.989 149.685C264.261 129.867 238.398 117.353 210.642 114.195C182.885 111.038 154.881 117.423 131.222 132.306C107.562 147.188 89.651 169.683 80.4243 196.104C59.2815 197.838 39.6277 207.7 25.5769 223.625C11.526 239.551 4.16744 260.305 5.04144 281.543C5.91544 302.782 14.9543 322.858 30.2659 337.57C45.5775 352.283 65.9749 360.489 87.1883 360.473H319.96C338.117 360.473 355.531 353.246 368.37 340.38C381.209 327.515 388.422 310.066 388.422 291.872C388.422 273.678 381.209 256.229 368.37 243.363C355.531 230.498 338.117 223.27 319.96 223.27H319.22Z" fill="url(#paint2_linear_13_8)" shape-rendering="crispEdges"/>
<path d="M318.723 223.325L318.773 223.77H319.22H319.96C337.984 223.77 355.27 230.945 368.016 243.717C380.761 256.488 387.922 273.81 387.922 291.872C387.922 309.934 380.761 327.256 368.016 340.027C355.27 352.799 337.984 359.973 319.96 359.973H87.1883H87.188C66.1039 359.989 45.8308 351.832 30.6123 337.21C15.3938 322.587 6.40973 302.633 5.54102 281.523C4.67231 260.413 11.9863 239.785 25.9518 223.956C39.9172 208.128 59.4514 198.326 80.4651 196.603L80.7891 196.576L80.8963 196.269C90.0857 169.955 107.925 147.551 131.488 132.729C155.052 117.907 182.941 111.547 210.585 114.692C238.229 117.837 263.986 130.3 283.634 150.038C303.282 169.775 315.655 195.617 318.723 223.325Z" stroke="url(#paint3_linear_13_8)" shape-rendering="crispEdges"/>
</g>
</g>
<defs>
<filter id="filter0_d_13_8" x="0.971619" y="2.54358" width="527.718" height="365.93" filterUnits="userSpaceOnUse" color-interpolation-filters="sRGB">
<feFlood flood-opacity="0" result="BackgroundImageFix"/>
<feColorMatrix in="SourceAlpha" type="matrix" values="0 0 0 0 0 0 0 0 0 0 0 0 0 0 0 0 0 0 127 0" result="hardAlpha"/>
<feOffset dy="4"/>
<feGaussianBlur stdDeviation="2"/>
<feComposite in2="hardAlpha" operator="out"/>
<feColorMatrix type="matrix" values="0 0 0 0 0 0 0 0 0 0 0 0 0 0 0 0 0 0 0.25 0"/>
<feBlend mode="normal" in2="BackgroundImageFix" result="effect1_dropShadow_13_8"/>
<feBlend mode="normal" in="SourceGraphic" in2="effect1_dropShadow_13_8" result="shape"/>
</filter>
<filter id="filter1_bd_13_8" x="170.112" y="-22.4564" width="379.577" height="382.59" filterUnits="userSpaceOnUse" color-interpolation-filters="sRGB">
<feFlood flood-opacity="0" result="BackgroundImageFix"/>
<feGaussianBlur in="BackgroundImageFix" stdDeviation="12.5"/>
<feComposite in2="SourceAlpha" operator="in" result="effect1_backgroundBlur_13_8"/>
<feColorMatrix in="SourceAlpha" type="matrix" values="0 0 0 0 0 0 0 0 0 0 0 0 0 0 0 0 0 0 127 0" result="hardAlpha"/>
<feOffset dy="2"/>
<feGaussianBlur stdDeviation="2"/>
<feComposite in2="hardAlpha" operator="out"/>
<feColorMatrix type="matrix" values="0 0 0 0 0 0 0 0 0 0 0 0 0 0 0 0 0 0 0.25 0"/>
<feBlend mode="normal" in2="effect1_backgroundBlur_13_8" result="effect2_dropShadow_13_8"/>
<feBlend mode="normal" in="SourceGraphic" in2="effect2_dropShadow_13_8" result="shape"/>
</filter>
<filter id="filter2_bd_13_8" x="-20.0284" y="88.4068" width="433.45" height="297.067" filterUnits="userSpaceOnUse" color-interpolation-filters="sRGB">
<feFlood flood-opacity="0" result="BackgroundImageFix"/>
<feGaussianBlur in="BackgroundImageFix" stdDeviation="12.5"/>
<feComposite in2="SourceAlpha" operator="in" result="effect1_backgroundBlur_13_8"/>
<feColorMatrix in="SourceAlpha" type="matrix" values="0 0 0 0 0 0 0 0 0 0 0 0 0 0 0 0 0 0 127 0" result="hardAlpha"/>
<feOffset dy="2"/>
<feGaussianBlur stdDeviation="2"/>
<feComposite in2="hardAlpha" operator="out"/>
<feColorMatrix type="matrix" values="0 0 0 0 0 0 0 0 0 0 0 0 0 0 0 0 0 0 0.25 0"/>
<feBlend mode="normal" in2="effect1_backgroundBlur_13_8" result="effect2_dropShadow_13_8"/>
<feBlend mode="normal" in="SourceGraphic" in2="effect2_dropShadow_13_8" result="shape"/>
</filter>
<linearGradient id="paint0_linear_13_8" x1="497.753" y1="37.3863" x2="194.739" y2="320.554" gradientUnits="userSpaceOnUse">
<stop stop-color="#FAFF00" stop-opacity="0.99"/>
<stop offset="1" stop-color="#FFC700" stop-opacity="0.51"/>
</linearGradient>
<linearGradient id="paint1_linear_13_8" x1="510.429" y1="27.8837" x2="203.155" y2="287.763" gradientUnits="userSpaceOnUse">
<stop stop-color="#FBFF42" stop-opacity="0.21"/>
<stop offset="1" stop-color="white" stop-opacity="0.5"/>
</linearGradient>
<linearGradient id="paint2_linear_13_8" x1="325.652" y1="155.623" x2="-60.9802" y2="383.659" gradientUnits="userSpaceOnUse">
<stop stop-color="#35C2FF" stop-opacity="0.25"/>
<stop offset="0.984375" stop-color="#67D1FF"/>
</linearGradient>
<linearGradient id="paint3_linear_13_8" x1="44.1307" y1="378.314" x2="387.44" y2="130.441" gradientUnits="userSpaceOnUse">
<stop stop-color="#35C2FF" stop-opacity="0.18"/>
<stop offset="1" stop-color="white" stop-opacity="0.5"/>
</linearGradient>
</defs>
</svg>
